<svg width="390" height="701" viewBox="0 0 390 701" fill="none" xmlns="http://www.w3.org/2000/svg">
<g clip-path="url(#clip0_2743_710)">
<rect x="390" y="206" width="390" height="206" transform="rotate(-180 390 206)" fill="url(#paint0_linear_2743_710)"/>
<g filter="url(#filter0_f_2743_710)">
<ellipse cx="194.366" cy="98.7778" rx="133.134" ry="69.2222" fill="white"/>
</g>
<path d="M105.549 38H103.137V25.4H105.351L111.687 33.716H111.723V25.4H114.135V38H111.903L105.585 29.666H105.549V38ZM126.367 38.234C122.659 38.234 119.815 35.426 119.815 31.7C119.815 27.974 122.659 25.166 126.367 25.166C130.093 25.166 132.937 27.974 132.937 31.7C132.937 35.426 130.093 38.234 126.367 38.234ZM126.367 35.948C128.833 35.948 130.507 34.022 130.507 31.7C130.507 29.378 128.833 27.452 126.367 27.452C123.919 27.452 122.245 29.378 122.245 31.7C122.245 34.022 123.919 35.948 126.367 35.948ZM143.787 38H141.285L137.253 25.4H139.755L142.545 34.256L145.407 25.4H147.837L150.681 34.256L153.471 25.4H155.973L151.923 38H149.421L146.613 29.018L143.787 38ZM169.564 38H166.882L172.3 25.4H174.802L180.238 38H177.556L176.422 35.39H170.698L169.564 38ZM173.542 28.442L171.508 33.23H175.594L173.578 28.442H173.542ZM190.116 38H187.632L182.664 25.4H185.292L188.856 34.688H188.892L192.456 25.4H195.102L190.116 38ZM200.196 38H197.514L202.932 25.4H205.434L210.87 38H208.188L207.054 35.39H201.33L200.196 38ZM204.174 28.442L202.14 33.23H206.226L204.21 28.442H204.174ZM218.359 38H215.947V25.4H218.359V38ZM231.841 38H224.803V25.4H227.233V35.75H231.841V38ZM238.681 38H235.999L241.417 25.4H243.919L249.355 38H246.673L245.539 35.39H239.815L238.681 38ZM242.659 28.442L240.625 33.23H244.711L242.695 28.442H242.659ZM258.95 38H254.432V25.4H258.662C260.678 25.4 262.694 26.426 262.694 28.856C262.694 30.26 261.92 31.07 261.092 31.52C262.01 31.952 263.144 32.816 263.144 34.562C263.144 37.046 261.254 38 258.95 38ZM256.862 27.488V30.602H258.5C259.58 30.602 260.264 30.044 260.264 29.036C260.264 28.028 259.598 27.488 258.5 27.488H256.862ZM256.862 32.69V35.912H258.824C260.066 35.912 260.714 35.336 260.714 34.346C260.714 33.32 259.958 32.69 258.734 32.69H256.862ZM275.846 38H268.808V25.4H271.238V35.75H275.846V38ZM288.321 38H281.373V25.4H288.231V27.632H283.785V30.494H287.997V32.744H283.785V35.75H288.321V38Z" fill="#CC4900"/>
<g clip-path="url(#clip1_2743_710)">
<path d="M21.15 101.87L18 83.9402L28.01 82.1802L28.63 85.7402L22.48 86.8202L23.1 90.3302L28.94 89.3102L29.56 92.8702L23.72 93.8902L24.38 97.6302L30.66 96.5302L31.28 100.09L21.14 101.87H21.15Z" fill="#37516D"/>
<path d="M34.2301 99.57L39.1501 89.68L31.5601 81.57L36.1601 80.87L40.8501 85.95L43.8001 79.72L48.4301 79.02L43.5801 89.01L51.2301 97L46.6001 97.7L41.8801 92.71L38.8201 98.88L34.2401 99.57H34.2301Z" fill="#37516D"/>
<path d="M54.6799 96.55L52.3799 78.49L59.2699 77.61C62.0599 77.25 65.3099 78.91 65.7999 82.78C66.2899 86.65 63.5599 89.07 60.7799 89.43L57.7599 89.82L58.5599 96.06L54.6899 96.55H54.6799ZM57.3299 86.43L59.7299 86.12C61.3599 85.91 62.0899 84.67 61.9099 83.27C61.7299 81.88 60.7099 80.85 59.0899 81.06L56.6899 81.37L57.3399 86.43H57.3299Z" fill="#37516D"/>
<path d="M71.5201 94.4598L69.5701 76.3698L79.6701 75.2798L80.0601 78.8698L73.8601 79.5398L74.2401 83.0798L80.1301 82.4398L80.5201 86.0298L74.6301 86.6698L75.0401 90.4398L81.3701 89.7598L81.7601 93.3498L71.5301 94.4598H71.5201Z" fill="#37516D"/>
<path d="M98.3399 79.4602C97.2399 77.9602 95.7099 77.1602 93.5899 77.3502C90.2199 77.6502 88.2199 80.4302 88.4999 83.5702C88.7799 86.7002 91.2299 89.1002 94.5999 88.8002C96.7199 88.6102 98.0899 87.5502 98.9099 85.8902L102.4 87.5702C100.98 90.3802 98.3899 92.1802 94.9199 92.4802C89.5299 92.9502 85.0599 89.3002 84.5899 83.9102C84.1199 78.5202 87.8799 74.1502 93.2699 73.6702C96.7399 73.3702 99.5999 74.6802 101.49 77.1802L98.3499 79.4702L98.3399 79.4602Z" fill="#37516D"/>
<path d="M110.19 90.9402L109.2 76.3802L104.35 76.7102L104.1 73.1002L117.7 72.1802L117.94 75.7902L113.09 76.1202L114.08 90.6802L110.19 90.9402Z" fill="#37516D"/>
<path d="M119.15 90.2998L126.03 71.7298L130.08 71.5298L138.78 89.3198L134.47 89.5398L132.76 86.0798L124.81 86.4798L123.48 90.0898L119.14 90.3098L119.15 90.2998ZM125.92 82.9598L131.32 82.6898L128.33 76.4898H128.28L125.92 82.9598Z" fill="#37516D"/>
<path d="M143.91 89.1702L143.42 74.5902L138.56 74.7502L138.44 71.1402L152.06 70.6802L152.18 74.2902L147.32 74.4502L147.81 89.0302L143.91 89.1602V89.1702Z" fill="#37516D"/>
<path d="M156.34 88.8098L155.95 70.6098L159.87 70.5298L160.26 88.7298L156.34 88.8098Z" fill="#37516D"/>
<path d="M164.46 79.4998C164.43 74.0898 168.54 70.0398 173.92 69.9998C179.33 69.9598 183.49 73.9698 183.53 79.3798C183.57 84.7898 179.46 88.8498 174.05 88.8798C168.67 88.9198 164.5 84.9098 164.47 79.4998H164.46ZM179.6 79.3998C179.58 76.2498 177.32 73.6698 173.94 73.6898C170.59 73.7098 168.37 76.3298 168.39 79.4698C168.41 82.6198 170.66 85.1998 174.02 85.1798C177.4 85.1598 179.62 82.5398 179.6 79.3998Z" fill="#37516D"/>
<path d="M187.86 88.5101L188.04 70.3101L191.63 70.3501L200.18 81.7201H200.21L200.32 70.4401L204.25 70.4801L204.07 88.6801L200.48 88.6401L191.96 77.2701H191.91L191.8 88.5601L187.87 88.5201L187.86 88.5101Z" fill="#37516D"/>
<path d="M215.98 77.7702C218.74 78.5602 222.07 79.6302 221.98 83.7402C221.9 87.0402 219.11 89.3402 215.11 89.2502C212.25 89.1802 210.12 88.0602 208.4 85.9902L211.16 83.5302C212.22 84.7802 213.35 85.5902 215.19 85.6302C217.14 85.6802 218.02 84.8702 218.05 83.7502C218.08 82.4202 216.32 81.9702 214.31 81.3402C211.68 80.5502 208.98 79.2402 209.06 75.5402C209.14 72.3902 211.74 70.2702 215.4 70.3602C218.28 70.4302 220.03 71.5102 221.68 73.2402L218.92 75.6202C218.06 74.6902 216.88 74.0102 215.29 73.9702C213.83 73.9402 213.01 74.5402 212.99 75.5502C212.96 76.7502 214.3 77.2702 215.98 77.7502V77.7702Z" fill="#37516D"/>
<path d="M225.73 87.2302C225.77 85.9802 226.82 85.0002 228.07 85.0502C229.42 85.1002 230.55 86.2802 230.49 88.1502C230.36 91.9402 228.29 93.8002 225.35 94.7902L224.61 92.9702C226.32 92.3502 227.61 91.2202 227.65 90.1902C227.65 89.9002 227.56 89.6902 227.26 89.5302C226.39 89.0302 225.71 88.3302 225.75 87.2402L225.73 87.2302Z" fill="#37516D"/>
<path d="M241.76 89.8099L242.65 71.6299L252.8 72.1199L252.62 75.7299L246.39 75.4299L246.22 78.9899L252.14 79.2799L251.96 82.8899L246.04 82.5999L245.86 86.3899L252.22 86.6999L252.04 90.3099L241.76 89.8099Z" fill="#37516D"/>
<path d="M256.76 90.5799L257.87 72.4199L261.79 72.6599L260.9 87.2199L267.44 87.6199L267.22 91.2299L256.76 90.5899V90.5799Z" fill="#37516D"/>
<path d="M271.29 91.5001L272.64 73.3501L282.78 74.1001L282.51 77.7001L276.29 77.2401L276.03 80.7901L281.94 81.2301L281.67 84.8301L275.76 84.3901L275.48 88.1801L281.83 88.6501L281.56 92.2501L271.29 91.4901V91.5001Z" fill="#37516D"/>
<path d="M291.51 93.1201L286.04 74.3501L290.26 74.7301L293.97 87.9601H294.02L300.05 75.6201L304.27 76.0001L295.53 93.4801L291.52 93.1201H291.51Z" fill="#37516D"/>
<path d="M302.17 94.0701L311.91 76.8301L315.94 77.2701L321.7 96.2101L317.41 95.7401L316.27 92.0601L308.36 91.1901L306.47 94.5401L302.15 94.0701H302.17ZM310.01 87.9001L315.39 88.4901L313.42 81.8901H313.37L310.01 87.9001Z" fill="#37516D"/>
<path d="M326.81 96.9002L328.67 82.4402L323.85 81.8202L324.31 78.2402L337.82 79.9802L337.36 83.5602L332.54 82.9402L330.68 97.4002L326.81 96.9002Z" fill="#37516D"/>
<path d="M339.1 98.54L341.75 80.54L351.81 82.02L351.28 85.6L345.11 84.69L344.59 88.21L350.45 89.07L349.92 92.65L344.06 91.79L343.51 95.54L349.81 96.47L349.28 100.05L339.09 98.55L339.1 98.54Z" fill="#37516D"/>
<path d="M353.88 100.74L356.95 82.7998L364.07 84.0198C369.37 84.9298 372.77 89.3098 371.86 94.5898C370.96 99.8698 366.3 102.87 360.99 101.96L353.87 100.74H353.88ZM358.38 97.7598L361.61 98.3098C364.94 98.8798 367.48 97.0198 368.01 93.9198C368.54 90.8198 366.77 88.2198 363.44 87.6498L360.21 87.0998L358.38 97.7598Z" fill="#37516D"/>
</g>
<path d="M390 701L3.05176e-05 701L8.09291e-05 124.359C8.09291e-05 124.359 74.2084 101 195.542 101C316.875 101 390 124.359 390 124.359L390 701Z" fill="url(#paint1_linear_2743_710)"/>
</g>
<defs>
<filter id="filter0_f_2743_710" x="-108.768" y="-140.444" width="606.268" height="478.444" filterUnits="userSpaceOnUse" color-interpolation-filters="sRGB">
<feFlood flood-opacity="0" result="BackgroundImageFix"/>
<feBlend mode="normal" in="SourceGraphic" in2="BackgroundImageFix" result="shape"/>
<feGaussianBlur stdDeviation="85" result="effect1_foregroundBlur_2743_710"/>
</filter>
<linearGradient id="paint0_linear_2743_710" x1="585" y1="512.128" x2="585" y2="179.575" gradientUnits="userSpaceOnUse">
<stop offset="0.254808" stop-color="#EAA28B"/>
<stop offset="0.701923" stop-color="#FDE6DE"/>
<stop offset="1" stop-color="white"/>
</linearGradient>
<linearGradient id="paint1_linear_2743_710" x1="200.958" y1="60.1434" x2="200.958" y2="240.433" gradientUnits="userSpaceOnUse">
<stop stop-color="#F0B9A8"/>
<stop offset="0.725962" stop-color="#FDE6DE"/>
</linearGradient>
<clipPath id="clip0_2743_710">
<rect width="390" height="701" fill="white"/>
</clipPath>
<clipPath id="clip1_2743_710">
<rect width="354.02" height="32.12" fill="white" transform="translate(18 70)"/>
</clipPath>
</defs>
</svg>
